<?xml version="1.0" standalone="no"?>
<!DOCTYPE svg PUBLIC "-//W3C//DTD SVG 20010904//EN"
 "http://www.w3.org/TR/2001/REC-SVG-20010904/DTD/svg10.dtd">
<svg version="1.0" xmlns="http://www.w3.org/2000/svg"
 width="273.000000pt" height="273.000000pt" viewBox="0 0 273.000000 273.000000"
 preserveAspectRatio="xMidYMid meet">
<metadata>
Created by potrace 1.11, written by Peter Selinger 2001-2013
</metadata>
<g transform="translate(0.000000,273.000000) scale(0.100000,-0.100000)"
fill="#000000" stroke="none">
<path d="M1045 2650 c-437 -62 -802 -373 -962 -818 -51 -144 -72 -250 -79
-407 -11 -239 33 -447 137 -659 68 -137 130 -227 224 -325 237 -247 495 -361
819 -361 241 0 440 59 635 188 l54 36 44 -16 45 -16 61 36 c112 64 310 222
297 235 -6 6 -771 159 -775 155 -1 -2 -28 -50 -59 -108 -32 -58 -64 -110 -72
-117 -25 -19 -182 -36 -274 -30 -214 16 -383 98 -535 259 -43 45 -73 84 -67
86 6 2 53 -12 104 -31 170 -63 218 -80 221 -76 23 34 77 129 77 136 0 5 -75
24 -167 42 -93 19 -173 36 -180 38 -6 2 -26 -17 -43 -42 -40 -58 -37 -61 -114
90 -47 91 -46 99 2 90 90 -17 85 -19 120 36 19 28 31 53 28 56 -3 3 -54 10
-113 15 -59 5 -108 10 -109 11 -1 1 -5 21 -9 45 l-7 42 160 -6 159 -7 37 54
c36 53 43 70 29 68 -5 -1 -95 -1 -200 0 l-193 1 0 50 0 50 209 2 209 3 -36 58
-37 59 -163 -7 -163 -6 7 28 c3 15 8 35 10 44 4 13 27 18 114 26 61 5 113 12
116 15 9 10 -60 108 -76 108 -8 0 -32 -4 -53 -9 -20 -5 -39 -5 -42 -1 -6 9 54
118 92 168 l25 33 23 -34 24 -34 148 30 c81 17 149 32 151 33 7 4 -83 134 -93
134 -6 0 -50 -16 -99 -35 -101 -39 -96 -38 -96 -26 0 20 153 130 241 174 140
68 292 92 466 71 l52 -7 62 -93 c36 -55 68 -94 78 -94 9 0 138 25 286 55 454
93 514 105 520 105 49 0 -269 248 -341 266 -12 3 -53 -4 -91 -17 l-70 -22 -84
46 c-93 50 -198 89 -311 113 -88 18 -290 26 -373 14z"/>
<path d="M1075 2202 c-82 -30 -152 -56 -154 -58 -1 -1 21 -37 50 -79 47 -68
55 -75 78 -70 14 3 90 18 169 34 78 16 145 31 149 34 8 8 -119 197 -132 196
-5 -1 -77 -26 -160 -57z"/>
<path d="M2405 2074 c-8 -3 -378 -61 -737 -116 -38 -6 -68 -14 -68 -19 0 -14
111 -177 124 -182 9 -3 789 55 869 65 l27 3 -31 65 c-16 36 -48 93 -71 128
-36 55 -44 62 -72 61 -17 0 -35 -2 -41 -5z"/>
<path d="M1320 1904 c-47 -8 -115 -19 -152 -25 l-67 -11 50 -75 51 -76 137 7
c75 4 161 11 192 14 l56 7 -56 87 c-64 100 -56 97 -211 72z"/>
<path d="M880 1834 c-47 -7 -108 -16 -136 -20 -79 -10 -81 -14 -39 -75 21 -30
39 -56 41 -58 3 -4 317 19 322 24 6 5 -88 145 -96 144 -4 -1 -45 -7 -92 -15z"/>
<path d="M2118 1625 c-158 -6 -290 -14 -294 -17 -3 -4 17 -40 45 -82 l52 -76
391 0 391 0 -7 53 c-4 28 -9 71 -12 95 l-6 42 -137 -1 c-75 -1 -265 -7 -423
-14z"/>
<path d="M1599 1606 c-2 -3 -71 -6 -152 -7 -81 -1 -149 -5 -152 -9 -2 -3 16
-37 41 -73 l44 -67 201 0 201 0 -18 28 c-87 135 -85 132 -124 132 -20 0 -39
-2 -41 -4z"/>
<path d="M933 1583 c-62 -2 -113 -7 -113 -11 0 -4 13 -26 28 -48 15 -23 32
-49 37 -58 9 -15 31 -16 182 -14 l172 3 -42 67 -42 67 -55 -1 c-30 -1 -106 -4
-167 -5z"/>
<path d="M1053 1340 l-172 -5 -40 -56 -40 -56 181 -8 c147 -5 183 -4 189 7 48
79 68 117 61 120 -4 2 -84 1 -179 -2z"/>
<path d="M1370 1342 c-6 -2 -10 -8 -10 -12 0 -5 -13 -32 -30 -60 -16 -28 -30
-54 -30 -59 0 -4 87 -11 193 -15 192 -7 192 -7 211 16 21 26 69 118 64 123 -4
5 -386 11 -398 7z"/>
<path d="M1903 1328 c-19 -25 -77 -137 -73 -141 6 -5 638 -27 761 -27 l87 0
11 75 c6 42 11 82 11 90 0 13 -55 15 -394 15 -303 0 -396 -3 -403 -12z"/>
<path d="M688 1060 c-21 -33 -35 -60 -32 -60 3 0 75 -11 160 -25 85 -14 165
-25 177 -25 17 0 31 14 54 53 47 77 49 85 21 91 -24 6 -290 26 -324 26 -12 -1
-32 -22 -56 -60z"/>
<path d="M1180 1005 c-23 -42 -41 -77 -39 -79 6 -4 333 -56 355 -56 13 0 33
25 66 87 27 48 45 89 42 92 -5 6 -276 29 -345 30 -34 1 -37 -2 -79 -74z"/>
<path d="M1716 996 c-14 -25 -37 -66 -51 -90 -14 -25 -25 -49 -25 -54 0 -5 21
-12 48 -15 60 -8 113 -17 461 -72 157 -25 295 -45 308 -45 26 0 74 68 130 185
l33 70 -22 2 c-24 3 -617 49 -769 60 l-87 6 -26 -47z"/>
<path d="M1023 726 c-24 -42 -43 -79 -43 -84 0 -9 298 -122 321 -122 14 0 21
11 90 136 l39 71 -162 32 c-90 17 -172 34 -183 37 -16 4 -28 -9 -62 -70z"/>
</g>
</svg>
